<mxfile host="app.diagrams.net" modified="2021-10-23T16:14:12.613Z" agent="5.0 (X11)" etag="EGVHlSmZNRlh4M7T3nuA" version="15.5.8" type="github">
  <diagram id="kgpKYQtTHZ0yAKxKKP6v" name="Page-1">
    <mxGraphModel dx="812" dy="481" grid="1" gridSize="10" guides="1" tooltips="1" connect="1" arrows="1" fold="1" page="1" pageScale="1" pageWidth="850" pageHeight="1100" math="0" shadow="0">
      <root>
        <mxCell id="0" />
        <mxCell id="1" parent="0" />
        <mxCell id="3nuBFxr9cyL0pnOWT2aG-1" value="&quot;actor&quot;&#xa;Admin&#xa;" style="shape=umlLifeline;perimeter=lifelinePerimeter;container=1;collapsible=0;recursiveResize=0;rounded=0;shadow=0;strokeWidth=1;fontStyle=1" parent="1" vertex="1">
          <mxGeometry x="70" y="80" width="100" height="360" as="geometry" />
        </mxCell>
        <mxCell id="KFKGkG7VKPks62WZXjRc-30" value="2: Kiểm tra trạng thái đăng nhập" style="verticalAlign=bottom;endArrow=open;dashed=1;endSize=8;shadow=0;strokeWidth=1;exitX=-0.3;exitY=0.59;exitDx=0;exitDy=0;exitPerimeter=0;" parent="3nuBFxr9cyL0pnOWT2aG-1" edge="1" source="3nuBFxr9cyL0pnOWT2aG-6">
          <mxGeometry x="0.0072" relative="1" as="geometry">
            <mxPoint x="50" y="120" as="targetPoint" />
            <mxPoint x="180" y="120" as="sourcePoint" />
            <mxPoint as="offset" />
            <Array as="points" />
          </mxGeometry>
        </mxCell>
        <mxCell id="cvH03DsBMHZBTObERGHX-27" value="7: Điền thông tin chỉnh sửa" style="verticalAlign=bottom;startArrow=oval;endArrow=block;startSize=8;shadow=0;strokeWidth=1;exitX=0.49;exitY=0.269;exitDx=0;exitDy=0;exitPerimeter=0;" edge="1" parent="3nuBFxr9cyL0pnOWT2aG-1" target="3nuBFxr9cyL0pnOWT2aG-5">
          <mxGeometry x="-0.0635" relative="1" as="geometry">
            <mxPoint x="50" y="230.08000000000004" as="sourcePoint" />
            <mxPoint x="191" y="230" as="targetPoint" />
            <Array as="points" />
            <mxPoint as="offset" />
          </mxGeometry>
        </mxCell>
        <mxCell id="3nuBFxr9cyL0pnOWT2aG-5" value="&quot;boundary&quot;&#xa;UserManageView&#xa;" style="shape=umlLifeline;perimeter=lifelinePerimeter;container=1;collapsible=0;recursiveResize=0;rounded=0;shadow=0;strokeWidth=1;fontStyle=1" parent="1" vertex="1">
          <mxGeometry x="230" y="80" width="120" height="360" as="geometry" />
        </mxCell>
        <mxCell id="3nuBFxr9cyL0pnOWT2aG-6" value="" style="points=[];perimeter=orthogonalPerimeter;rounded=0;shadow=0;strokeWidth=1;" parent="3nuBFxr9cyL0pnOWT2aG-5" vertex="1">
          <mxGeometry x="55" y="60" width="10" height="110" as="geometry" />
        </mxCell>
        <mxCell id="cvH03DsBMHZBTObERGHX-18" value="" style="points=[];perimeter=orthogonalPerimeter;rounded=0;shadow=0;strokeWidth=1;" vertex="1" parent="3nuBFxr9cyL0pnOWT2aG-5">
          <mxGeometry x="55" y="220" width="10" height="40" as="geometry" />
        </mxCell>
        <mxCell id="cvH03DsBMHZBTObERGHX-43" value="7: Gửi thông tin mới cập nhập" style="verticalAlign=bottom;startArrow=oval;endArrow=block;startSize=8;shadow=0;strokeWidth=1;exitX=0.49;exitY=0.269;exitDx=0;exitDy=0;exitPerimeter=0;" edge="1" parent="3nuBFxr9cyL0pnOWT2aG-5" target="KFKGkG7VKPks62WZXjRc-3">
          <mxGeometry x="-0.0635" relative="1" as="geometry">
            <mxPoint x="65" y="249.50000000000006" as="sourcePoint" />
            <mxPoint x="234.5" y="249.50000000000006" as="targetPoint" />
            <Array as="points" />
            <mxPoint as="offset" />
          </mxGeometry>
        </mxCell>
        <mxCell id="KFKGkG7VKPks62WZXjRc-1" value="&quot;boundary&quot;&#xa;CoreView-MessageBox&#xa;" style="shape=umlLifeline;perimeter=lifelinePerimeter;container=1;collapsible=0;recursiveResize=0;rounded=0;shadow=0;strokeWidth=1;fontStyle=1" parent="1" vertex="1">
          <mxGeometry x="365" y="80" width="135" height="360" as="geometry" />
        </mxCell>
        <mxCell id="cvH03DsBMHZBTObERGHX-26" value="3: Gửi yêu cầu cập nhập" style="verticalAlign=bottom;startArrow=oval;endArrow=block;startSize=8;shadow=0;strokeWidth=1;exitX=0.49;exitY=0.269;exitDx=0;exitDy=0;exitPerimeter=0;entryX=0;entryY=0.143;entryDx=0;entryDy=0;entryPerimeter=0;" edge="1" parent="KFKGkG7VKPks62WZXjRc-1" target="cvH03DsBMHZBTObERGHX-37">
          <mxGeometry x="-0.0635" relative="1" as="geometry">
            <mxPoint x="-70" y="130.08000000000004" as="sourcePoint" />
            <mxPoint x="71" y="130" as="targetPoint" />
            <Array as="points" />
            <mxPoint as="offset" />
          </mxGeometry>
        </mxCell>
        <mxCell id="KFKGkG7VKPks62WZXjRc-3" value="&quot;control&quot;&#xa;UserController&#xa;" style="shape=umlLifeline;perimeter=lifelinePerimeter;container=1;collapsible=0;recursiveResize=0;rounded=0;shadow=0;strokeWidth=1;fontStyle=1" parent="1" vertex="1">
          <mxGeometry x="520" y="80" width="120" height="360" as="geometry" />
        </mxCell>
        <mxCell id="cvH03DsBMHZBTObERGHX-12" value="" style="points=[];perimeter=orthogonalPerimeter;rounded=0;shadow=0;strokeWidth=1;" vertex="1" parent="KFKGkG7VKPks62WZXjRc-3">
          <mxGeometry x="55" y="240" width="10" height="30" as="geometry" />
        </mxCell>
        <mxCell id="cvH03DsBMHZBTObERGHX-37" value="" style="points=[];perimeter=orthogonalPerimeter;rounded=0;shadow=0;strokeWidth=1;" vertex="1" parent="KFKGkG7VKPks62WZXjRc-3">
          <mxGeometry x="55" y="120" width="10" height="50" as="geometry" />
        </mxCell>
        <mxCell id="cvH03DsBMHZBTObERGHX-40" value="4: Lấy thông tin &#xa;người dùng" style="verticalAlign=bottom;startArrow=oval;endArrow=block;startSize=8;shadow=0;strokeWidth=1;exitX=0.51;exitY=0.239;exitDx=0;exitDy=0;exitPerimeter=0;entryX=0;entryY=0.4;entryDx=0;entryDy=0;entryPerimeter=0;" edge="1" parent="KFKGkG7VKPks62WZXjRc-3" target="cvH03DsBMHZBTObERGHX-41">
          <mxGeometry x="-0.0635" relative="1" as="geometry">
            <mxPoint x="65" y="144.57999999999996" as="sourcePoint" />
            <mxPoint x="234" y="144.50000000000003" as="targetPoint" />
            <Array as="points" />
            <mxPoint as="offset" />
          </mxGeometry>
        </mxCell>
        <mxCell id="cvH03DsBMHZBTObERGHX-28" value="8: Cập nhập CSDL" style="verticalAlign=bottom;startArrow=oval;endArrow=block;startSize=8;shadow=0;strokeWidth=1;exitX=0.49;exitY=0.269;exitDx=0;exitDy=0;exitPerimeter=0;" edge="1" parent="KFKGkG7VKPks62WZXjRc-3">
          <mxGeometry x="-0.0635" relative="1" as="geometry">
            <mxPoint x="65" y="260.08000000000004" as="sourcePoint" />
            <mxPoint x="200" y="260" as="targetPoint" />
            <Array as="points" />
            <mxPoint as="offset" />
          </mxGeometry>
        </mxCell>
        <mxCell id="KFKGkG7VKPks62WZXjRc-7" value="1: Chọn người dùng cần chính sửa" style="verticalAlign=bottom;startArrow=oval;endArrow=block;startSize=8;shadow=0;strokeWidth=1;exitX=0.51;exitY=0.239;exitDx=0;exitDy=0;exitPerimeter=0;entryX=0.5;entryY=0.236;entryDx=0;entryDy=0;entryPerimeter=0;" parent="1" source="3nuBFxr9cyL0pnOWT2aG-1" target="3nuBFxr9cyL0pnOWT2aG-6" edge="1">
          <mxGeometry x="-0.0635" relative="1" as="geometry">
            <mxPoint x="150" y="208" as="sourcePoint" />
            <mxPoint x="280" y="166" as="targetPoint" />
            <Array as="points" />
            <mxPoint as="offset" />
          </mxGeometry>
        </mxCell>
        <mxCell id="cvH03DsBMHZBTObERGHX-15" value="&quot;entity&quot;&#xa;Student, Teacher&#xa;" style="shape=umlLifeline;perimeter=lifelinePerimeter;container=1;collapsible=0;recursiveResize=0;rounded=0;shadow=0;strokeWidth=1;fontStyle=1" vertex="1" parent="1">
          <mxGeometry x="660" y="80" width="120" height="360" as="geometry" />
        </mxCell>
        <mxCell id="cvH03DsBMHZBTObERGHX-16" value="" style="points=[];perimeter=orthogonalPerimeter;rounded=0;shadow=0;strokeWidth=1;" vertex="1" parent="cvH03DsBMHZBTObERGHX-15">
          <mxGeometry x="55" y="240" width="10" height="40" as="geometry" />
        </mxCell>
        <mxCell id="cvH03DsBMHZBTObERGHX-30" value="" style="points=[];perimeter=orthogonalPerimeter;rounded=0;shadow=0;strokeWidth=1;" vertex="1" parent="cvH03DsBMHZBTObERGHX-15">
          <mxGeometry x="55" y="300" width="10" height="40" as="geometry" />
        </mxCell>
        <mxCell id="cvH03DsBMHZBTObERGHX-31" value="" style="endArrow=classic;html=1;rounded=0;entryX=1.1;entryY=0.475;entryDx=0;entryDy=0;entryPerimeter=0;" edge="1" parent="cvH03DsBMHZBTObERGHX-15" target="cvH03DsBMHZBTObERGHX-30">
          <mxGeometry relative="1" as="geometry">
            <mxPoint x="65" y="270" as="sourcePoint" />
            <mxPoint x="65" y="326" as="targetPoint" />
            <Array as="points">
              <mxPoint x="100.5" y="270" />
              <mxPoint x="101" y="319" />
            </Array>
          </mxGeometry>
        </mxCell>
        <mxCell id="cvH03DsBMHZBTObERGHX-32" value="9: Kiểm tra thông tin người dùng" style="edgeLabel;resizable=0;html=1;align=center;verticalAlign=middle;" connectable="0" vertex="1" parent="cvH03DsBMHZBTObERGHX-31">
          <mxGeometry relative="1" as="geometry">
            <mxPoint x="50" as="offset" />
          </mxGeometry>
        </mxCell>
        <mxCell id="cvH03DsBMHZBTObERGHX-35" value="10: Trả kết quả" style="verticalAlign=bottom;endArrow=open;dashed=1;endSize=8;shadow=0;strokeWidth=1;" edge="1" parent="cvH03DsBMHZBTObERGHX-15">
          <mxGeometry x="-0.0702" relative="1" as="geometry">
            <mxPoint x="-80" y="330" as="targetPoint" />
            <mxPoint x="50" y="330" as="sourcePoint" />
            <mxPoint x="1" as="offset" />
            <Array as="points" />
          </mxGeometry>
        </mxCell>
        <mxCell id="cvH03DsBMHZBTObERGHX-41" value="" style="points=[];perimeter=orthogonalPerimeter;rounded=0;shadow=0;strokeWidth=1;" vertex="1" parent="cvH03DsBMHZBTObERGHX-15">
          <mxGeometry x="55" y="130" width="10" height="40" as="geometry" />
        </mxCell>
        <mxCell id="cvH03DsBMHZBTObERGHX-11" value="5: Trả về form cập nhập" style="verticalAlign=bottom;startArrow=none;endArrow=block;startSize=8;shadow=0;strokeWidth=1;entryX=0.9;entryY=0.89;entryDx=0;entryDy=0;entryPerimeter=0;exitX=-0.2;exitY=0.76;exitDx=0;exitDy=0;exitPerimeter=0;" edge="1" parent="1" source="cvH03DsBMHZBTObERGHX-37" target="3nuBFxr9cyL0pnOWT2aG-6">
          <mxGeometry x="-0.051" relative="1" as="geometry">
            <mxPoint x="570" y="238" as="sourcePoint" />
            <mxPoint x="434.5" y="290" as="targetPoint" />
            <Array as="points" />
            <mxPoint as="offset" />
          </mxGeometry>
        </mxCell>
        <mxCell id="cvH03DsBMHZBTObERGHX-36" value="11: Thông báo kết quả" style="verticalAlign=bottom;endArrow=open;dashed=1;endSize=8;shadow=0;strokeWidth=1;entryX=0.489;entryY=0.939;entryDx=0;entryDy=0;entryPerimeter=0;exitX=0.458;exitY=0.939;exitDx=0;exitDy=0;exitPerimeter=0;" edge="1" parent="1" source="KFKGkG7VKPks62WZXjRc-3" target="KFKGkG7VKPks62WZXjRc-1">
          <mxGeometry x="-0.0702" relative="1" as="geometry">
            <mxPoint x="445" y="410" as="targetPoint" />
            <mxPoint x="575" y="410" as="sourcePoint" />
            <mxPoint x="1" as="offset" />
            <Array as="points" />
          </mxGeometry>
        </mxCell>
      </root>
    </mxGraphModel>
  </diagram>
</mxfile>
